<?xml version="1.0" encoding="UTF-8" standalone="no"?>
<!DOCTYPE svg PUBLIC "-//W3C//DTD SVG 1.1//EN"
 "http://www.w3.org/Graphics/SVG/1.1/DTD/svg11.dtd">
<!-- Generated by graphviz version 12.1.0 (20240811.2233)
 -->
<!-- Title: dependency&#45;cruiser output Pages: 1 -->
<svg width="546pt" height="588pt"
 viewBox="0.00 0.00 546.25 588.00" xmlns="http://www.w3.org/2000/svg" xmlns:xlink="http://www.w3.org/1999/xlink">
<g id="graph0" class="graph" transform="scale(1 1) rotate(0) translate(4 584)">
<title>dependency&#45;cruiser output</title>
<polygon fill="white" stroke="none" points="-4,4 -4,-584 542.25,-584 542.25,4 -4,4"/>
<g id="clust1" class="cluster">
<title>cluster_src</title>
<path fill="#ffffff" stroke="black" stroke-width="2" d="M20,-8C20,-8 518.25,-8 518.25,-8 524.25,-8 530.25,-14 530.25,-20 530.25,-20 530.25,-560 530.25,-560 530.25,-566 524.25,-572 518.25,-572 518.25,-572 20,-572 20,-572 14,-572 8,-566 8,-560 8,-560 8,-20 8,-20 8,-14 14,-8 20,-8"/>
<text text-anchor="middle" x="269.12" y="-559.45" font-family="Helvetica,sans-Serif" font-weight="bold" font-size="9.00">src</text>
</g>
<g id="clust2" class="cluster">
<title>cluster_src/app</title>
<path fill="#ffffff" stroke="black" stroke-width="2" d="M51.25,-16C51.25,-16 510.25,-16 510.25,-16 516.25,-16 522.25,-22 522.25,-28 522.25,-28 522.25,-127 522.25,-127 522.25,-133 516.25,-139 510.25,-139 510.25,-139 51.25,-139 51.25,-139 45.25,-139 39.25,-133 39.25,-127 39.25,-127 39.25,-28 39.25,-28 39.25,-22 45.25,-16 51.25,-16"/>
<text text-anchor="middle" x="280.75" y="-126.45" font-family="Helvetica,sans-Serif" font-weight="bold" font-size="9.00">app</text>
</g>
<g id="clust3" class="cluster">
<title>cluster_src/app/provider</title>
<path fill="#ffffff" stroke="black" stroke-width="2" d="M59.25,-24C59.25,-24 502.25,-24 502.25,-24 508.25,-24 514.25,-30 514.25,-36 514.25,-36 514.25,-100 514.25,-100 514.25,-106 508.25,-112 502.25,-112 502.25,-112 59.25,-112 59.25,-112 53.25,-112 47.25,-106 47.25,-100 47.25,-100 47.25,-36 47.25,-36 47.25,-30 53.25,-24 59.25,-24"/>
<text text-anchor="middle" x="280.75" y="-99.45" font-family="Helvetica,sans-Serif" font-weight="bold" font-size="9.00">provider</text>
</g>
<g id="clust4" class="cluster">
<title>cluster_src/app/provider/root</title>
<path fill="#ffffff" stroke="black" stroke-width="2" d="M67.25,-32C67.25,-32 259.88,-32 259.88,-32 265.88,-32 271.88,-38 271.88,-44 271.88,-44 271.88,-73 271.88,-73 271.88,-79 265.88,-85 259.88,-85 259.88,-85 67.25,-85 67.25,-85 61.25,-85 55.25,-79 55.25,-73 55.25,-73 55.25,-44 55.25,-44 55.25,-38 61.25,-32 67.25,-32"/>
<text text-anchor="middle" x="163.56" y="-72.45" font-family="Helvetica,sans-Serif" font-weight="bold" font-size="9.00">root</text>
</g>
<g id="clust5" class="cluster">
<title>cluster_src/app/provider/theme</title>
<path fill="#ffffff" stroke="black" stroke-width="2" d="M314.38,-32C314.38,-32 494.25,-32 494.25,-32 500.25,-32 506.25,-38 506.25,-44 506.25,-44 506.25,-73 506.25,-73 506.25,-79 500.25,-85 494.25,-85 494.25,-85 314.38,-85 314.38,-85 308.38,-85 302.38,-79 302.38,-73 302.38,-73 302.38,-44 302.38,-44 302.38,-38 308.38,-32 314.38,-32"/>
<text text-anchor="middle" x="404.31" y="-72.45" font-family="Helvetica,sans-Serif" font-weight="bold" font-size="9.00">theme</text>
</g>
<g id="clust6" class="cluster">
<title>cluster_src/shared</title>
<path fill="#ffffff" stroke="black" stroke-width="2" d="M28,-147C28,-147 152.5,-147 152.5,-147 158.5,-147 164.5,-153 164.5,-159 164.5,-159 164.5,-376 164.5,-376 164.5,-382 158.5,-388 152.5,-388 152.5,-388 28,-388 28,-388 22,-388 16,-382 16,-376 16,-376 16,-159 16,-159 16,-153 22,-147 28,-147"/>
<text text-anchor="middle" x="90.25" y="-375.45" font-family="Helvetica,sans-Serif" font-weight="bold" font-size="9.00">shared</text>
</g>
<g id="clust7" class="cluster">
<title>cluster_src/shared/hooks</title>
<path fill="#ffffff" stroke="black" stroke-width="2" d="M36,-155C36,-155 144.5,-155 144.5,-155 150.5,-155 156.5,-161 156.5,-167 156.5,-167 156.5,-196 156.5,-196 156.5,-202 150.5,-208 144.5,-208 144.5,-208 36,-208 36,-208 30,-208 24,-202 24,-196 24,-196 24,-167 24,-167 24,-161 30,-155 36,-155"/>
<text text-anchor="middle" x="90.25" y="-195.45" font-family="Helvetica,sans-Serif" font-weight="bold" font-size="9.00">hooks</text>
</g>
<g id="clust8" class="cluster">
<title>cluster_src/shared/lib</title>
<path fill="#ffffff" stroke="black" stroke-width="2" d="M54.75,-216C54.75,-216 125.75,-216 125.75,-216 131.75,-216 137.75,-222 137.75,-228 137.75,-228 137.75,-257 137.75,-257 137.75,-263 131.75,-269 125.75,-269 125.75,-269 54.75,-269 54.75,-269 48.75,-269 42.75,-263 42.75,-257 42.75,-257 42.75,-228 42.75,-228 42.75,-222 48.75,-216 54.75,-216"/>
<text text-anchor="middle" x="90.25" y="-256.45" font-family="Helvetica,sans-Serif" font-weight="bold" font-size="9.00">lib</text>
</g>
<g id="clust9" class="cluster">
<title>cluster_src/shared/ui</title>
<path fill="#ffffff" stroke="black" stroke-width="2" d="M48,-277C48,-277 132.5,-277 132.5,-277 138.5,-277 144.5,-283 144.5,-289 144.5,-289 144.5,-349 144.5,-349 144.5,-355 138.5,-361 132.5,-361 132.5,-361 48,-361 48,-361 42,-361 36,-355 36,-349 36,-349 36,-289 36,-289 36,-283 42,-277 48,-277"/>
<text text-anchor="middle" x="90.25" y="-348.45" font-family="Helvetica,sans-Serif" font-weight="bold" font-size="9.00">ui</text>
</g>
<g id="clust10" class="cluster">
<title>cluster_src/widgets</title>
<path fill="#ffffff" stroke="black" stroke-width="2" d="M59.25,-396C59.25,-396 388,-396 388,-396 394,-396 400,-402 400,-408 400,-408 400,-533 400,-533 400,-539 394,-545 388,-545 388,-545 59.25,-545 59.25,-545 53.25,-545 47.25,-539 47.25,-533 47.25,-533 47.25,-408 47.25,-408 47.25,-402 53.25,-396 59.25,-396"/>
<text text-anchor="middle" x="223.62" y="-532.45" font-family="Helvetica,sans-Serif" font-weight="bold" font-size="9.00">widgets</text>
</g>
<g id="clust11" class="cluster">
<title>cluster_src/widgets/google&#45;analytic</title>
<path fill="#ffffff" stroke="black" stroke-width="2" d="M67.25,-404C67.25,-404 270.75,-404 270.75,-404 276.75,-404 282.75,-410 282.75,-416 282.75,-416 282.75,-445 282.75,-445 282.75,-451 276.75,-457 270.75,-457 270.75,-457 67.25,-457 67.25,-457 61.25,-457 55.25,-451 55.25,-445 55.25,-445 55.25,-416 55.25,-416 55.25,-410 61.25,-404 67.25,-404"/>
<text text-anchor="middle" x="169" y="-444.45" font-family="Helvetica,sans-Serif" font-weight="bold" font-size="9.00">google&#45;analytic</text>
</g>
<g id="clust12" class="cluster">
<title>cluster_src/widgets/header</title>
<path fill="#ffffff" stroke="black" stroke-width="2" d="M67.25,-465C67.25,-465 380,-465 380,-465 386,-465 392,-471 392,-477 392,-477 392,-506 392,-506 392,-512 386,-518 380,-518 380,-518 67.25,-518 67.25,-518 61.25,-518 55.25,-512 55.25,-506 55.25,-506 55.25,-477 55.25,-477 55.25,-471 61.25,-465 67.25,-465"/>
<text text-anchor="middle" x="223.62" y="-505.45" font-family="Helvetica,sans-Serif" font-weight="bold" font-size="9.00">header</text>
</g>
<!-- src/app/provider/root/index.ts -->
<g id="node1" class="node">
<title>src/app/provider/root/index.ts</title>
<g id="a_node1"><a xlink:href="src/app/provider/root/index.ts" xlink:title="index.ts">
<path fill="#ddfeff" stroke="black" d="M111.08,-58.25C111.08,-58.25 69.42,-58.25 69.42,-58.25 66.33,-58.25 63.25,-55.17 63.25,-52.08 63.25,-52.08 63.25,-45.92 63.25,-45.92 63.25,-42.83 66.33,-39.75 69.42,-39.75 69.42,-39.75 111.08,-39.75 111.08,-39.75 114.17,-39.75 117.25,-42.83 117.25,-45.92 117.25,-45.92 117.25,-52.08 117.25,-52.08 117.25,-55.17 114.17,-58.25 111.08,-58.25"/>
<text text-anchor="start" x="74.5" y="-45.7" font-family="Helvetica,sans-Serif" font-size="9.00">index.ts</text>
</a>
</g>
</g>
<!-- src/app/provider/root/root.provider.tsx -->
<g id="node2" class="node">
<title>src/app/provider/root/root.provider.tsx</title>
<g id="a_node2"><a xlink:href="src/app/provider/root/root.provider.tsx" xlink:title="root.provider.tsx">
<path fill="#bbfeff" stroke="black" d="M257.71,-58.25C257.71,-58.25 189.54,-58.25 189.54,-58.25 186.46,-58.25 183.38,-55.17 183.38,-52.08 183.38,-52.08 183.38,-45.92 183.38,-45.92 183.38,-42.83 186.46,-39.75 189.54,-39.75 189.54,-39.75 257.71,-39.75 257.71,-39.75 260.79,-39.75 263.88,-42.83 263.88,-45.92 263.88,-45.92 263.88,-52.08 263.88,-52.08 263.88,-55.17 260.79,-58.25 257.71,-58.25"/>
<text text-anchor="start" x="191.38" y="-45.7" font-family="Helvetica,sans-Serif" font-size="9.00">root.provider.tsx</text>
</a>
</g>
</g>
<!-- src/app/provider/root/index.ts&#45;&gt;src/app/provider/root/root.provider.tsx -->
<g id="edge1" class="edge">
<title>src/app/provider/root/index.ts&#45;&gt;src/app/provider/root/root.provider.tsx</title>
<path fill="none" stroke="#000000" stroke-width="2" stroke-opacity="0.200000" d="M117.52,-49C134.19,-49 156.24,-49 175.84,-49"/>
<polygon fill="#000000" fill-opacity="0.200000" stroke="#000000" stroke-width="2" stroke-opacity="0.200000" points="181.93,-51.1 175.93,-49 181.93,-46.9 181.93,-51.1"/>
</g>
<!-- src/app/provider/theme/index.ts -->
<g id="node3" class="node">
<title>src/app/provider/theme/index.ts</title>
<g id="a_node3"><a xlink:href="src/app/provider/theme/index.ts" xlink:title="index.ts">
<path fill="#ddfeff" stroke="black" d="M358.21,-58.25C358.21,-58.25 316.54,-58.25 316.54,-58.25 313.46,-58.25 310.38,-55.17 310.38,-52.08 310.38,-52.08 310.38,-45.92 310.38,-45.92 310.38,-42.83 313.46,-39.75 316.54,-39.75 316.54,-39.75 358.21,-39.75 358.21,-39.75 361.29,-39.75 364.38,-42.83 364.38,-45.92 364.38,-45.92 364.38,-52.08 364.38,-52.08 364.38,-55.17 361.29,-58.25 358.21,-58.25"/>
<text text-anchor="start" x="321.62" y="-45.7" font-family="Helvetica,sans-Serif" font-size="9.00">index.ts</text>
</a>
</g>
</g>
<!-- src/app/provider/root/root.provider.tsx&#45;&gt;src/app/provider/theme/index.ts -->
<g id="edge2" class="edge">
<title>src/app/provider/root/root.provider.tsx&#45;&gt;src/app/provider/theme/index.ts</title>
<path fill="none" stroke="#000000" stroke-width="2" stroke-opacity="0.200000" d="M264.34,-49C276.32,-49 289.38,-49 301.05,-49"/>
<polygon fill="#000000" fill-opacity="0.200000" stroke="#000000" stroke-width="2" stroke-opacity="0.200000" points="301.04,-51.1 307.04,-49 301.04,-46.9 301.04,-51.1"/>
</g>
<!-- src/app/provider/theme/theme.provider.tsx -->
<g id="node4" class="node">
<title>src/app/provider/theme/theme.provider.tsx</title>
<g id="a_node4"><a xlink:href="src/app/provider/theme/theme.provider.tsx" xlink:title="theme.provider.tsx">
<path fill="#bbfeff" stroke="black" d="M492.08,-58.25C492.08,-58.25 414.17,-58.25 414.17,-58.25 411.08,-58.25 408,-55.17 408,-52.08 408,-52.08 408,-45.92 408,-45.92 408,-42.83 411.08,-39.75 414.17,-39.75 414.17,-39.75 492.08,-39.75 492.08,-39.75 495.17,-39.75 498.25,-42.83 498.25,-45.92 498.25,-45.92 498.25,-52.08 498.25,-52.08 498.25,-55.17 495.17,-58.25 492.08,-58.25"/>
<text text-anchor="start" x="416" y="-45.7" font-family="Helvetica,sans-Serif" font-size="9.00">theme.provider.tsx</text>
</a>
</g>
</g>
<!-- src/app/provider/theme/index.ts&#45;&gt;src/app/provider/theme/theme.provider.tsx -->
<g id="edge3" class="edge">
<title>src/app/provider/theme/index.ts&#45;&gt;src/app/provider/theme/theme.provider.tsx</title>
<path fill="none" stroke="#000000" stroke-width="2" stroke-opacity="0.200000" d="M364.76,-49C375.5,-49 388.3,-49 400.75,-49"/>
<polygon fill="#000000" fill-opacity="0.200000" stroke="#000000" stroke-width="2" stroke-opacity="0.200000" points="406.62,-51.1 400.62,-49 406.62,-46.9 406.62,-51.1"/>
</g>
<!-- src/shared/hooks/use&#45;mutation&#45;observer.ts -->
<g id="node5" class="node">
<title>src/shared/hooks/use&#45;mutation&#45;observer.ts</title>
<g id="a_node5"><a xlink:href="src/shared/hooks/use-mutation-observer.ts" xlink:title="no&#45;orphans">
<path fill="#ccffcc" stroke="orange" d="M142.33,-181.25C142.33,-181.25 38.17,-181.25 38.17,-181.25 35.08,-181.25 32,-178.17 32,-175.08 32,-175.08 32,-168.92 32,-168.92 32,-165.83 35.08,-162.75 38.17,-162.75 38.17,-162.75 142.33,-162.75 142.33,-162.75 145.42,-162.75 148.5,-165.83 148.5,-168.92 148.5,-168.92 148.5,-175.08 148.5,-175.08 148.5,-178.17 145.42,-181.25 142.33,-181.25"/>
<text text-anchor="start" x="40" y="-168.7" font-family="Helvetica,sans-Serif" font-size="9.00" fill="orange">use&#45;mutation&#45;observer.ts</text>
</a>
</g>
</g>
<!-- src/shared/lib/image&#45;loader.ts -->
<g id="node6" class="node">
<title>src/shared/lib/image&#45;loader.ts</title>
<g id="a_node6"><a xlink:href="src/shared/lib/image-loader.ts" xlink:title="no&#45;orphans">
<path fill="#ccffcc" stroke="orange" d="M123.58,-242.25C123.58,-242.25 56.92,-242.25 56.92,-242.25 53.83,-242.25 50.75,-239.17 50.75,-236.08 50.75,-236.08 50.75,-229.92 50.75,-229.92 50.75,-226.83 53.83,-223.75 56.92,-223.75 56.92,-223.75 123.58,-223.75 123.58,-223.75 126.67,-223.75 129.75,-226.83 129.75,-229.92 129.75,-229.92 129.75,-236.08 129.75,-236.08 129.75,-239.17 126.67,-242.25 123.58,-242.25"/>
<text text-anchor="start" x="58.75" y="-229.7" font-family="Helvetica,sans-Serif" font-size="9.00" fill="orange">image&#45;loader.ts</text>
</a>
</g>
</g>
<!-- src/shared/ui/optimize&#45;image.tsx -->
<g id="node7" class="node">
<title>src/shared/ui/optimize&#45;image.tsx</title>
<g id="a_node7"><a xlink:href="src/shared/ui/optimize-image.tsx" xlink:title="no&#45;orphans">
<path fill="#ccffcc" stroke="orange" d="M130.33,-303.25C130.33,-303.25 50.17,-303.25 50.17,-303.25 47.08,-303.25 44,-300.17 44,-297.08 44,-297.08 44,-290.92 44,-290.92 44,-287.83 47.08,-284.75 50.17,-284.75 50.17,-284.75 130.33,-284.75 130.33,-284.75 133.42,-284.75 136.5,-287.83 136.5,-290.92 136.5,-290.92 136.5,-297.08 136.5,-297.08 136.5,-300.17 133.42,-303.25 130.33,-303.25"/>
<text text-anchor="start" x="52" y="-290.7" font-family="Helvetica,sans-Serif" font-size="9.00" fill="orange">optimize&#45;image.tsx</text>
</a>
</g>
</g>
<!-- src/shared/ui/optimize&#45;link.tsx -->
<g id="node8" class="node">
<title>src/shared/ui/optimize&#45;link.tsx</title>
<g id="a_node8"><a xlink:href="src/shared/ui/optimize-link.tsx" xlink:title="no&#45;orphans">
<path fill="#ccffcc" stroke="orange" d="M124.71,-334.25C124.71,-334.25 55.79,-334.25 55.79,-334.25 52.71,-334.25 49.62,-331.17 49.62,-328.08 49.62,-328.08 49.62,-321.92 49.62,-321.92 49.62,-318.83 52.71,-315.75 55.79,-315.75 55.79,-315.75 124.71,-315.75 124.71,-315.75 127.79,-315.75 130.88,-318.83 130.88,-321.92 130.88,-321.92 130.88,-328.08 130.88,-328.08 130.88,-331.17 127.79,-334.25 124.71,-334.25"/>
<text text-anchor="start" x="57.62" y="-321.7" font-family="Helvetica,sans-Serif" font-size="9.00" fill="orange">optimize&#45;link.tsx</text>
</a>
</g>
</g>
<!-- src/widgets/google&#45;analytic/google&#45;analytic.ui.tsx -->
<g id="node9" class="node">
<title>src/widgets/google&#45;analytic/google&#45;analytic.ui.tsx</title>
<g id="a_node9"><a xlink:href="src/widgets/google-analytic/google-analytic.ui.tsx" xlink:title="google&#45;analytic.ui.tsx">
<path fill="#bbfeff" stroke="black" d="M268.58,-430.25C268.58,-430.25 178.67,-430.25 178.67,-430.25 175.58,-430.25 172.5,-427.17 172.5,-424.08 172.5,-424.08 172.5,-417.92 172.5,-417.92 172.5,-414.83 175.58,-411.75 178.67,-411.75 178.67,-411.75 268.58,-411.75 268.58,-411.75 271.67,-411.75 274.75,-414.83 274.75,-417.92 274.75,-417.92 274.75,-424.08 274.75,-424.08 274.75,-427.17 271.67,-430.25 268.58,-430.25"/>
<text text-anchor="start" x="180.5" y="-417.7" font-family="Helvetica,sans-Serif" font-size="9.00">google&#45;analytic.ui.tsx</text>
</a>
</g>
</g>
<!-- src/widgets/google&#45;analytic/index.ts -->
<g id="node10" class="node">
<title>src/widgets/google&#45;analytic/index.ts</title>
<g id="a_node10"><a xlink:href="src/widgets/google-analytic/index.ts" xlink:title="index.ts">
<path fill="#ddfeff" stroke="black" d="M111.08,-430.25C111.08,-430.25 69.42,-430.25 69.42,-430.25 66.33,-430.25 63.25,-427.17 63.25,-424.08 63.25,-424.08 63.25,-417.92 63.25,-417.92 63.25,-414.83 66.33,-411.75 69.42,-411.75 69.42,-411.75 111.08,-411.75 111.08,-411.75 114.17,-411.75 117.25,-414.83 117.25,-417.92 117.25,-417.92 117.25,-424.08 117.25,-424.08 117.25,-427.17 114.17,-430.25 111.08,-430.25"/>
<text text-anchor="start" x="74.5" y="-417.7" font-family="Helvetica,sans-Serif" font-size="9.00">index.ts</text>
</a>
</g>
</g>
<!-- src/widgets/google&#45;analytic/index.ts&#45;&gt;src/widgets/google&#45;analytic/google&#45;analytic.ui.tsx -->
<g id="edge4" class="edge">
<title>src/widgets/google&#45;analytic/index.ts&#45;&gt;src/widgets/google&#45;analytic/google&#45;analytic.ui.tsx</title>
<path fill="none" stroke="#000000" stroke-width="2" stroke-opacity="0.200000" d="M117.52,-421C131.21,-421 148.53,-421 165.14,-421"/>
<polygon fill="#000000" fill-opacity="0.200000" stroke="#000000" stroke-width="2" stroke-opacity="0.200000" points="171.21,-423.1 165.21,-421 171.21,-418.9 171.21,-423.1"/>
</g>
<!-- src/widgets/header/header.module.css -->
<g id="node11" class="node">
<title>src/widgets/header/header.module.css</title>
<g id="a_node11"><a xlink:href="src/widgets/header/header.module.css" xlink:title="header.module.css">
<path fill="#ffffcc" stroke="black" d="M377.83,-491.25C377.83,-491.25 296.92,-491.25 296.92,-491.25 293.83,-491.25 290.75,-488.17 290.75,-485.08 290.75,-485.08 290.75,-478.92 290.75,-478.92 290.75,-475.83 293.83,-472.75 296.92,-472.75 296.92,-472.75 377.83,-472.75 377.83,-472.75 380.92,-472.75 384,-475.83 384,-478.92 384,-478.92 384,-485.08 384,-485.08 384,-488.17 380.92,-491.25 377.83,-491.25"/>
<text text-anchor="start" x="298.75" y="-478.7" font-family="Helvetica,sans-Serif" font-size="9.00">header.module.css</text>
</a>
</g>
</g>
<!-- src/widgets/header/header.ui.tsx -->
<g id="node12" class="node">
<title>src/widgets/header/header.ui.tsx</title>
<g id="a_node12"><a xlink:href="src/widgets/header/header.ui.tsx" xlink:title="header.ui.tsx">
<path fill="#bbfeff" stroke="black" d="M251.33,-491.25C251.33,-491.25 195.92,-491.25 195.92,-491.25 192.83,-491.25 189.75,-488.17 189.75,-485.08 189.75,-485.08 189.75,-478.92 189.75,-478.92 189.75,-475.83 192.83,-472.75 195.92,-472.75 195.92,-472.75 251.33,-472.75 251.33,-472.75 254.42,-472.75 257.5,-475.83 257.5,-478.92 257.5,-478.92 257.5,-485.08 257.5,-485.08 257.5,-488.17 254.42,-491.25 251.33,-491.25"/>
<text text-anchor="start" x="197.75" y="-478.7" font-family="Helvetica,sans-Serif" font-size="9.00">header.ui.tsx</text>
</a>
</g>
</g>
<!-- src/widgets/header/header.ui.tsx&#45;&gt;src/widgets/header/header.module.css -->
<g id="edge5" class="edge">
<title>src/widgets/header/header.ui.tsx&#45;&gt;src/widgets/header/header.module.css</title>
<path fill="none" stroke="#000000" stroke-width="2" stroke-opacity="0.200000" d="M257.85,-482C265.41,-482 273.64,-482 281.82,-482"/>
<polygon fill="#000000" fill-opacity="0.200000" stroke="#000000" stroke-width="2" stroke-opacity="0.200000" points="281.63,-484.1 287.63,-482 281.63,-479.9 281.63,-484.1"/>
</g>
<!-- src/widgets/header/index.ts -->
<g id="node13" class="node">
<title>src/widgets/header/index.ts</title>
<g id="a_node13"><a xlink:href="src/widgets/header/index.ts" xlink:title="index.ts">
<path fill="#ddfeff" stroke="black" d="M111.08,-491.25C111.08,-491.25 69.42,-491.25 69.42,-491.25 66.33,-491.25 63.25,-488.17 63.25,-485.08 63.25,-485.08 63.25,-478.92 63.25,-478.92 63.25,-475.83 66.33,-472.75 69.42,-472.75 69.42,-472.75 111.08,-472.75 111.08,-472.75 114.17,-472.75 117.25,-475.83 117.25,-478.92 117.25,-478.92 117.25,-485.08 117.25,-485.08 117.25,-488.17 114.17,-491.25 111.08,-491.25"/>
<text text-anchor="start" x="74.5" y="-478.7" font-family="Helvetica,sans-Serif" font-size="9.00">index.ts</text>
</a>
</g>
</g>
<!-- src/widgets/header/index.ts&#45;&gt;src/widgets/header/header.ui.tsx -->
<g id="edge6" class="edge">
<title>src/widgets/header/index.ts&#45;&gt;src/widgets/header/header.ui.tsx</title>
<path fill="none" stroke="#000000" stroke-width="2" stroke-opacity="0.200000" d="M117.52,-482C136.09,-482 161.32,-482 182.41,-482"/>
<polygon fill="#000000" fill-opacity="0.200000" stroke="#000000" stroke-width="2" stroke-opacity="0.200000" points="188.39,-484.1 182.39,-482 188.39,-479.9 188.39,-484.1"/>
</g>
</g>
</svg>
